<svg width="85" height="27" viewBox="0 0 85 27" fill="none" xmlns="http://www.w3.org/2000/svg">
<path d="M12 3C13 6 14.5 6.5 15.5 7.5C16.4421 8.42315 16.9812 9.68115 17 11C17 12.3261 16.4732 13.5979 15.5355 14.5355C14.5979 15.4732 13.3261 16 12 16C10.6739 16 9.40215 15.4732 8.46447 14.5355C7.52678 13.5979 7 12.3261 7 11C7 10.7 7 10.4 7.1 10.1C7.18451 10.3957 7.33608 10.668 7.54294 10.8956C7.74981 11.1232 8.00638 11.3001 8.29272 11.4124C8.57905 11.5247 8.88743 11.5695 9.19389 11.5432C9.50034 11.5169 9.7966 11.4203 10.0596 11.2609C10.3227 11.1015 10.5454 10.8835 10.7105 10.624C10.8756 10.3645 10.9786 10.0704 11.0115 9.76462C11.0445 9.45882 11.0064 9.14954 10.9004 8.86083C10.7943 8.57212 10.6231 8.31176 10.4 8.1C8 5.5 11 3 12 3Z" stroke="black" stroke-width="2" stroke-linecap="round" stroke-linejoin="round"/>
<path d="M5 23L19 19" stroke="black" stroke-width="2" stroke-linecap="round" stroke-linejoin="round"/>
<path d="M5 19L19 23" stroke="black" stroke-width="2" stroke-linecap="round" stroke-linejoin="round"/>
<path d="M24 0V27" stroke="black"/>
<path d="M36.899 16.561C36.899 17.1563 36.7597 17.6693 36.481 18.1C36.215 18.518 35.7717 18.9043 35.151 19.259C34.733 19.5123 34.2453 19.7023 33.688 19.829C33.1307 19.9557 32.567 20.019 31.997 20.019C31.4143 20.019 30.6923 19.829 29.831 19.449C29.2103 19.145 28.7163 18.784 28.349 18.366C27.9943 17.948 27.817 17.492 27.817 16.998C27.817 16.656 27.893 16.409 28.045 16.257C28.197 16.0923 28.444 16.01 28.786 16.01C28.9633 16.01 29.147 16.086 29.337 16.238C29.527 16.3773 29.641 16.5167 29.679 16.656C29.8563 17.1753 30.1667 17.5743 30.61 17.853C31.0533 18.119 31.6043 18.252 32.263 18.252C33.023 18.252 33.6563 18.1127 34.163 17.834C34.6823 17.5553 34.942 17.1817 34.942 16.713C34.942 16.257 34.6633 15.8517 34.106 15.497C33.5487 15.1423 32.9787 14.8953 32.396 14.756C31.56 14.528 30.819 14.2557 30.173 13.939C29.5017 13.6097 29.0013 13.2043 28.672 12.723C28.3427 12.2417 28.178 11.735 28.178 11.203C28.178 10.709 28.349 10.2087 28.691 9.702C29.033 9.18267 29.4383 8.809 29.907 8.581C30.1603 8.45433 30.591 8.32133 31.199 8.182C31.8197 8.03 32.2693 7.954 32.548 7.954C32.9153 7.954 33.3207 7.99833 33.764 8.087C34.2073 8.17567 34.5683 8.30233 34.847 8.467C35.4043 8.78367 35.816 9.06867 36.082 9.322C36.348 9.57533 36.481 9.892 36.481 10.272C36.481 10.5 36.3923 10.7027 36.215 10.88C36.0503 11.0573 35.759 11.146 35.341 11.146C35.2397 11.146 35.1383 11.1017 35.037 11.013C34.9357 10.9243 34.809 10.7913 34.657 10.614C34.4543 10.348 34.258 10.1707 34.068 10.082C33.878 10.0187 33.5993 9.949 33.232 9.873C32.8773 9.797 32.5607 9.759 32.282 9.759C31.978 9.759 31.6613 9.82233 31.332 9.949C31.0027 10.0757 30.724 10.2593 30.496 10.5C30.2807 10.728 30.173 10.994 30.173 11.298C30.173 11.5513 30.287 11.773 30.515 11.963C30.7557 12.1403 31.0407 12.286 31.37 12.4C31.75 12.552 32.1617 12.685 32.605 12.799C33.1877 12.9763 33.6627 13.141 34.03 13.293C34.41 13.4323 34.7773 13.6097 35.132 13.825C35.7527 14.1923 36.2023 14.5723 36.481 14.965C36.7597 15.345 36.899 15.877 36.899 16.561ZM40.8039 17.055C40.8039 17.5363 40.8736 17.91 41.0129 18.176C41.1649 18.4293 41.3549 18.556 41.5829 18.556C41.7096 18.556 41.8299 18.5497 41.9439 18.537C42.0579 18.5117 42.1719 18.499 42.2859 18.499C42.4126 18.499 42.5203 18.5623 42.6089 18.689C42.7103 18.8157 42.7609 18.955 42.7609 19.107C42.7609 19.411 42.6153 19.6517 42.3239 19.829C42.0453 19.9937 41.6653 20.076 41.1839 20.076C40.8419 20.076 40.4936 19.9747 40.1389 19.772C39.7969 19.5567 39.5119 19.2273 39.2839 18.784C39.0559 18.328 38.9419 17.7643 38.9419 17.093C38.9419 15.649 38.9673 14.4267 39.0179 13.426C39.0813 12.2353 39.1129 10.7343 39.1129 8.923C39.1129 8.353 39.1446 7.954 39.2079 7.726C39.2839 7.54867 39.4043 7.41567 39.5689 7.327C39.7463 7.22567 39.9299 7.175 40.1199 7.175C40.3099 7.175 40.4746 7.20667 40.6139 7.27C40.7659 7.33333 40.8673 7.43467 40.9179 7.574C40.9686 7.726 41.0003 7.878 41.0129 8.03C41.0383 8.16933 41.0509 8.372 41.0509 8.638C41.0509 9.15733 41.0319 9.65767 40.9939 10.139C40.9686 10.7217 40.9559 11.146 40.9559 11.412C40.8546 13.6413 40.8039 15.5223 40.8039 17.055ZM45.0258 7.802C45.4691 7.84 45.8555 7.96033 46.1848 8.163C46.5141 8.353 46.6788 8.64433 46.6788 9.037C46.6788 9.32833 46.5395 9.56267 46.2608 9.74C45.9948 9.90467 45.6718 9.987 45.2918 9.987C44.9245 9.987 44.6711 9.892 44.5318 9.702C44.3925 9.512 44.3228 9.31567 44.3228 9.113C44.3228 8.733 44.3608 8.41633 44.4368 8.163C44.5255 7.90967 44.7218 7.78933 45.0258 7.802ZM46.5458 16.219V16.77C46.5458 17.264 46.5585 17.7327 46.5838 18.176C46.6218 18.6067 46.6661 19.0437 46.7168 19.487C46.7041 19.6137 46.6091 19.7467 46.4318 19.886C46.2545 20.0127 46.0961 20.076 45.9568 20.076C45.7161 20.076 45.4691 20.0317 45.2158 19.943C44.9751 19.8417 44.8295 19.7213 44.7788 19.582C44.7028 19.1767 44.6648 18.8157 44.6648 18.499C44.6648 17.4603 44.6331 16.295 44.5698 15.003C44.5191 13.863 44.4938 13.065 44.4938 12.609C44.4938 12.381 44.6078 12.1847 44.8358 12.02C45.0638 11.8553 45.3045 11.773 45.5578 11.773C45.9251 11.773 46.1785 11.8553 46.3178 12.02C46.4698 12.1847 46.5458 12.4443 46.5458 12.799V16.219ZM48.7661 13.312C48.6648 13.236 48.5825 13.16 48.5191 13.084C48.4558 12.9953 48.4241 12.8433 48.4241 12.628C48.4241 12.3873 48.5065 12.2037 48.6711 12.077C48.8485 11.9377 49.0511 11.868 49.2791 11.868C49.7225 11.868 50.1025 11.982 50.4191 12.21C50.7485 12.438 50.9891 12.7547 51.1411 13.16C51.4198 12.6407 51.7745 12.286 52.2051 12.096C52.6358 11.8933 53.2311 11.792 53.9911 11.792C54.2951 11.792 54.6055 11.887 54.9221 12.077C55.2515 12.2543 55.5491 12.476 55.8151 12.742C56.0305 13.0207 56.2141 13.369 56.3661 13.787C56.5181 14.1923 56.5941 14.5597 56.5941 14.889C56.5941 15.079 56.5815 15.3893 56.5561 15.82C56.5308 16.276 56.5181 16.637 56.5181 16.903C56.5181 17.7897 56.6891 18.3343 57.0311 18.537C57.0818 18.5623 57.1768 18.594 57.3161 18.632C57.4555 18.67 57.5568 18.708 57.6201 18.746C57.6961 18.784 57.7341 18.841 57.7341 18.917C57.7468 19.221 57.6328 19.4743 57.3921 19.677C57.1641 19.867 56.8855 19.962 56.5561 19.962C56.0621 19.962 55.6758 19.829 55.3971 19.563C55.1185 19.297 54.9221 18.8917 54.8081 18.347C54.7448 18.1443 54.7131 17.8467 54.7131 17.454C54.7131 17.2387 54.7258 16.8903 54.7511 16.409C54.7891 16.029 54.8081 15.6237 54.8081 15.193C54.8081 14.7497 54.6815 14.3633 54.4281 14.034C54.1748 13.692 53.8265 13.521 53.3831 13.521C53.1171 13.521 52.8385 13.6033 52.5471 13.768C52.2558 13.92 52.0531 14.11 51.9391 14.338C51.7491 14.7307 51.6225 15.1297 51.5591 15.535C51.4071 16.3203 51.3311 17.074 51.3311 17.796C51.3311 17.9733 51.3438 18.3153 51.3691 18.822C51.3691 18.86 51.3691 18.955 51.3691 19.107C51.3691 19.2463 51.3501 19.3793 51.3121 19.506C51.2868 19.6327 51.2361 19.7467 51.1601 19.848C51.1095 19.8987 51.0145 19.9493 50.8751 20C50.7358 20.0507 50.6155 20.076 50.5141 20.076C50.3368 20.076 50.1151 20 49.8491 19.848C49.5831 19.696 49.4248 19.525 49.3741 19.335L49.3551 19.069C49.3551 18.9677 49.3678 18.8157 49.3931 18.613C49.5451 17.7263 49.6211 16.9537 49.6211 16.295C49.6211 16.0037 49.6148 15.782 49.6021 15.63L49.5831 14.756C49.5831 14.49 49.5071 14.2367 49.3551 13.996C49.2031 13.7427 49.0068 13.5147 48.7661 13.312ZM66.63 8.106C66.63 8.23267 66.611 8.391 66.573 8.581C66.5603 8.657 66.5477 8.73933 66.535 8.828C66.5223 8.91667 66.5097 9.02433 66.497 9.151C66.383 10.291 66.326 11.7033 66.326 13.388C66.326 14.984 66.3957 16.1683 66.535 16.941C66.6743 17.7137 66.8897 18.176 67.181 18.328L67.542 18.48C67.732 18.5433 67.8713 18.613 67.96 18.689C68.0613 18.765 68.112 18.8917 68.112 19.069C68.112 19.3223 67.979 19.544 67.713 19.734C67.447 19.9113 67.1557 20 66.839 20C66.5097 20 66.1867 19.867 65.87 19.601C65.5533 19.3223 65.2937 18.974 65.091 18.556C64.8757 19.012 64.4957 19.3793 63.951 19.658C63.4063 19.924 62.887 20.057 62.393 20.057C61.9497 20.057 61.5633 20 61.234 19.886C60.9047 19.7593 60.5627 19.5693 60.208 19.316C59.7773 19.012 59.448 18.6257 59.22 18.157C59.0047 17.6883 58.897 17.1753 58.897 16.618C58.897 16.0607 59.0047 15.4717 59.22 14.851C59.4353 14.2177 59.6823 13.6983 59.961 13.293C60.2903 12.8243 60.7273 12.476 61.272 12.248C61.8167 12.0073 62.3803 11.887 62.963 11.887C63.2923 11.887 63.5773 11.9503 63.818 12.077C64.0587 12.191 64.3057 12.3557 64.559 12.571C64.559 11.9377 64.5463 11.4057 64.521 10.975C64.5083 10.861 64.502 10.728 64.502 10.576C64.502 9.48667 64.5907 8.62533 64.768 7.992C64.9073 7.46 65.243 7.194 65.775 7.194C66.0663 7.194 66.2817 7.25733 66.421 7.384C66.5603 7.51067 66.63 7.75133 66.63 8.106ZM60.74 16.58C60.74 17.226 60.949 17.72 61.367 18.062C61.557 18.2393 61.7153 18.3597 61.842 18.423C61.9687 18.4863 62.127 18.518 62.317 18.518C62.6843 18.518 63.0327 18.4167 63.362 18.214C63.704 17.9987 63.97 17.72 64.16 17.378C64.3627 17.036 64.464 16.6687 64.464 16.276L64.445 14.395C64.179 14.091 63.932 13.882 63.704 13.768C63.4887 13.6413 63.2607 13.578 63.02 13.578C62.2093 13.578 61.652 13.8883 61.348 14.509C61.1833 14.8003 61.0377 15.1297 60.911 15.497C60.797 15.8643 60.74 16.2253 60.74 16.58ZM69.194 15.649C69.194 14.8763 69.365 14.2367 69.707 13.73C70.049 13.2107 70.524 12.723 71.132 12.267C71.3093 12.1403 71.607 12.0327 72.025 11.944C72.443 11.8427 72.8103 11.792 73.127 11.792C73.507 11.792 73.906 11.8743 74.324 12.039C74.7546 12.191 75.103 12.3683 75.369 12.571C75.8376 12.913 76.1606 13.312 76.338 13.768C76.5153 14.2113 76.604 14.7433 76.604 15.364C76.604 15.63 76.452 15.8897 76.148 16.143C75.8566 16.3837 75.54 16.504 75.198 16.504L74.476 16.485C74.1086 16.485 73.583 16.4977 72.899 16.523L72.5 16.542C72.2213 16.5673 72.0123 16.58 71.873 16.58C71.6703 16.58 71.3916 16.5547 71.037 16.504C71.0876 17.0993 71.3093 17.568 71.702 17.91C72.0946 18.2393 72.519 18.404 72.975 18.404C73.773 18.404 74.3303 18.2457 74.647 17.929C74.913 17.739 75.0903 17.6187 75.179 17.568C75.2676 17.5173 75.407 17.492 75.597 17.492C75.7996 17.492 75.977 17.587 76.129 17.777C76.281 17.967 76.357 18.157 76.357 18.347C76.357 18.5623 76.224 18.784 75.958 19.012C75.7046 19.2273 75.3563 19.4553 74.913 19.696C74.6723 19.7973 74.343 19.886 73.925 19.962C73.507 20.038 73.1586 20.076 72.88 20.076C72.4366 20.076 71.9426 19.9493 71.398 19.696C70.8533 19.43 70.448 19.1387 70.182 18.822C69.916 18.5053 69.6816 18.0557 69.479 17.473C69.289 16.8903 69.194 16.2823 69.194 15.649ZM72.975 15.136C73.8743 15.136 74.533 15.1043 74.951 15.041C74.9256 14.6737 74.8116 14.376 74.609 14.148C74.4063 13.9073 74.1276 13.7047 73.773 13.54C73.659 13.4893 73.5576 13.4513 73.469 13.426C73.3803 13.4007 73.279 13.388 73.165 13.388C72.5823 13.388 72.0883 13.5463 71.683 13.863C71.2903 14.1797 71.056 14.585 70.98 15.079C71.6133 15.117 72.2783 15.136 72.975 15.136ZM81.2135 19.24C81.2135 19.4553 81.1312 19.6453 80.9665 19.81C80.8019 19.9747 80.5992 20.057 80.3585 20.057C79.9785 20.057 79.6999 19.9873 79.5225 19.848C79.3452 19.696 79.2565 19.4237 79.2565 19.031C79.2565 18.5623 79.2439 17.948 79.2185 17.188C79.1932 16.5547 79.1805 16.0227 79.1805 15.592C79.1805 15.3893 79.1932 15.1233 79.2185 14.794C79.2439 14.49 79.2565 14.262 79.2565 14.11C79.2185 13.8693 79.1235 13.673 78.9715 13.521C78.8195 13.3563 78.6232 13.274 78.3825 13.274C78.2685 13.274 78.1735 13.2233 78.0975 13.122C78.0215 13.008 77.9835 12.894 77.9835 12.78C77.9835 12.4887 78.0975 12.267 78.3255 12.115C78.5662 11.963 78.8512 11.887 79.1805 11.887C79.8645 11.887 80.3395 12.2923 80.6055 13.103C80.9349 12.723 81.3085 12.419 81.7265 12.191C82.1572 11.9503 82.5689 11.83 82.9615 11.83C83.4302 11.83 83.8545 11.9567 84.2345 12.21C84.6272 12.4633 84.8235 12.8053 84.8235 13.236C84.8235 13.4767 84.7159 13.7237 84.5005 13.977C84.2979 14.2303 84.0889 14.357 83.8735 14.357C83.7595 14.357 83.6582 14.3317 83.5695 14.281C83.4935 14.2177 83.3985 14.129 83.2845 14.015C83.1579 13.8883 83.0502 13.7997 82.9615 13.749C82.8729 13.6857 82.7715 13.654 82.6575 13.654C82.4549 13.654 82.2649 13.6857 82.0875 13.749C81.9102 13.8123 81.7899 13.8883 81.7265 13.977C81.5239 14.2937 81.3719 14.5787 81.2705 14.832C81.1819 15.0853 81.1375 15.3577 81.1375 15.649C81.1375 15.8643 81.1312 16.0353 81.1185 16.162L81.0995 17.245C81.0995 17.4097 81.1059 17.5933 81.1185 17.796C81.1312 17.9987 81.1439 18.1507 81.1565 18.252C81.1945 18.594 81.2135 18.9233 81.2135 19.24Z" fill="black"/>
</svg>
