<svg width="82" height="24" viewBox="0 0 82 24" fill="none" xmlns="http://www.w3.org/2000/svg">
<path d="M8 3C9 6 10.5 6.5 11.5 7.5C12.4421 8.42315 12.9812 9.68115 13 11C13 12.3261 12.4732 13.5979 11.5355 14.5355C10.5979 15.4732 9.32608 16 8 16C6.67392 16 5.40215 15.4732 4.46447 14.5355C3.52678 13.5979 3 12.3261 3 11C3 10.7 3 10.4 3.1 10.1C3.18451 10.3957 3.33608 10.668 3.54294 10.8956C3.74981 11.1232 4.00638 11.3001 4.29272 11.4124C4.57905 11.5247 4.88743 11.5695 5.19389 11.5432C5.50034 11.5169 5.7966 11.4203 6.05964 11.2609C6.32267 11.1015 6.5454 10.8835 6.71049 10.624C6.87559 10.3645 6.97861 10.0704 7.01154 9.76462C7.04447 9.45882 7.00642 9.14954 6.90036 8.86083C6.79429 8.57212 6.62307 8.31176 6.4 8.1C4 5.5 7 3 8 3Z" stroke="black" stroke-width="2" stroke-linecap="round" stroke-linejoin="round"/>
<path d="M1 23L15 19" stroke="black" stroke-width="2" stroke-linecap="round" stroke-linejoin="round"/>
<path d="M1 19L15 23" stroke="black" stroke-width="2" stroke-linecap="round" stroke-linejoin="round"/>
<path d="M33.899 14.561C33.899 15.1563 33.7597 15.6693 33.481 16.1C33.215 16.518 32.7717 16.9043 32.151 17.259C31.733 17.5123 31.2453 17.7023 30.688 17.829C30.1307 17.9557 29.567 18.019 28.997 18.019C28.4143 18.019 27.6923 17.829 26.831 17.449C26.2103 17.145 25.7163 16.784 25.349 16.366C24.9943 15.948 24.817 15.492 24.817 14.998C24.817 14.656 24.893 14.409 25.045 14.257C25.197 14.0923 25.444 14.01 25.786 14.01C25.9633 14.01 26.147 14.086 26.337 14.238C26.527 14.3773 26.641 14.5167 26.679 14.656C26.8563 15.1753 27.1667 15.5743 27.61 15.853C28.0533 16.119 28.6043 16.252 29.263 16.252C30.023 16.252 30.6563 16.1127 31.163 15.834C31.6823 15.5553 31.942 15.1817 31.942 14.713C31.942 14.257 31.6633 13.8517 31.106 13.497C30.5487 13.1423 29.9787 12.8953 29.396 12.756C28.56 12.528 27.819 12.2557 27.173 11.939C26.5017 11.6097 26.0013 11.2043 25.672 10.723C25.3427 10.2417 25.178 9.735 25.178 9.203C25.178 8.709 25.349 8.20867 25.691 7.702C26.033 7.18267 26.4383 6.809 26.907 6.581C27.1603 6.45433 27.591 6.32133 28.199 6.182C28.8197 6.03 29.2693 5.954 29.548 5.954C29.9153 5.954 30.3207 5.99833 30.764 6.087C31.2073 6.17567 31.5683 6.30233 31.847 6.467C32.4043 6.78367 32.816 7.06867 33.082 7.322C33.348 7.57533 33.481 7.892 33.481 8.272C33.481 8.5 33.3923 8.70267 33.215 8.88C33.0503 9.05733 32.759 9.146 32.341 9.146C32.2397 9.146 32.1383 9.10167 32.037 9.013C31.9357 8.92433 31.809 8.79133 31.657 8.614C31.4543 8.348 31.258 8.17067 31.068 8.082C30.878 8.01867 30.5993 7.949 30.232 7.873C29.8773 7.797 29.5607 7.759 29.282 7.759C28.978 7.759 28.6613 7.82233 28.332 7.949C28.0027 8.07567 27.724 8.25933 27.496 8.5C27.2807 8.728 27.173 8.994 27.173 9.298C27.173 9.55133 27.287 9.773 27.515 9.963C27.7557 10.1403 28.0407 10.286 28.37 10.4C28.75 10.552 29.1617 10.685 29.605 10.799C30.1877 10.9763 30.6627 11.141 31.03 11.293C31.41 11.4323 31.7773 11.6097 32.132 11.825C32.7527 12.1923 33.2023 12.5723 33.481 12.965C33.7597 13.345 33.899 13.877 33.899 14.561ZM37.8039 15.055C37.8039 15.5363 37.8736 15.91 38.0129 16.176C38.1649 16.4293 38.3549 16.556 38.5829 16.556C38.7096 16.556 38.8299 16.5497 38.9439 16.537C39.0579 16.5117 39.1719 16.499 39.2859 16.499C39.4126 16.499 39.5203 16.5623 39.6089 16.689C39.7103 16.8157 39.7609 16.955 39.7609 17.107C39.7609 17.411 39.6153 17.6517 39.3239 17.829C39.0453 17.9937 38.6653 18.076 38.1839 18.076C37.8419 18.076 37.4936 17.9747 37.1389 17.772C36.7969 17.5567 36.5119 17.2273 36.2839 16.784C36.0559 16.328 35.9419 15.7643 35.9419 15.093C35.9419 13.649 35.9673 12.4267 36.0179 11.426C36.0813 10.2353 36.1129 8.73433 36.1129 6.923C36.1129 6.353 36.1446 5.954 36.2079 5.726C36.2839 5.54867 36.4043 5.41567 36.5689 5.327C36.7463 5.22567 36.9299 5.175 37.1199 5.175C37.3099 5.175 37.4746 5.20667 37.6139 5.27C37.7659 5.33333 37.8673 5.43467 37.9179 5.574C37.9686 5.726 38.0003 5.878 38.0129 6.03C38.0383 6.16933 38.0509 6.372 38.0509 6.638C38.0509 7.15733 38.0319 7.65767 37.9939 8.139C37.9686 8.72167 37.9559 9.146 37.9559 9.412C37.8546 11.6413 37.8039 13.5223 37.8039 15.055ZM42.0258 5.802C42.4691 5.84 42.8555 5.96033 43.1848 6.163C43.5141 6.353 43.6788 6.64433 43.6788 7.037C43.6788 7.32833 43.5395 7.56267 43.2608 7.74C42.9948 7.90467 42.6718 7.987 42.2918 7.987C41.9245 7.987 41.6711 7.892 41.5318 7.702C41.3925 7.512 41.3228 7.31567 41.3228 7.113C41.3228 6.733 41.3608 6.41633 41.4368 6.163C41.5255 5.90967 41.7218 5.78933 42.0258 5.802ZM43.5458 14.219V14.77C43.5458 15.264 43.5585 15.7327 43.5838 16.176C43.6218 16.6067 43.6661 17.0437 43.7168 17.487C43.7041 17.6137 43.6091 17.7467 43.4318 17.886C43.2545 18.0127 43.0961 18.076 42.9568 18.076C42.7161 18.076 42.4691 18.0317 42.2158 17.943C41.9751 17.8417 41.8295 17.7213 41.7788 17.582C41.7028 17.1767 41.6648 16.8157 41.6648 16.499C41.6648 15.4603 41.6331 14.295 41.5698 13.003C41.5191 11.863 41.4938 11.065 41.4938 10.609C41.4938 10.381 41.6078 10.1847 41.8358 10.02C42.0638 9.85533 42.3045 9.773 42.5578 9.773C42.9251 9.773 43.1785 9.85533 43.3178 10.02C43.4698 10.1847 43.5458 10.4443 43.5458 10.799V14.219ZM45.7661 11.312C45.6648 11.236 45.5825 11.16 45.5191 11.084C45.4558 10.9953 45.4241 10.8433 45.4241 10.628C45.4241 10.3873 45.5065 10.2037 45.6711 10.077C45.8485 9.93767 46.0511 9.868 46.2791 9.868C46.7225 9.868 47.1025 9.982 47.4191 10.21C47.7485 10.438 47.9891 10.7547 48.1411 11.16C48.4198 10.6407 48.7745 10.286 49.2051 10.096C49.6358 9.89333 50.2311 9.792 50.9911 9.792C51.2951 9.792 51.6055 9.887 51.9221 10.077C52.2515 10.2543 52.5491 10.476 52.8151 10.742C53.0305 11.0207 53.2141 11.369 53.3661 11.787C53.5181 12.1923 53.5941 12.5597 53.5941 12.889C53.5941 13.079 53.5815 13.3893 53.5561 13.82C53.5308 14.276 53.5181 14.637 53.5181 14.903C53.5181 15.7897 53.6891 16.3343 54.0311 16.537C54.0818 16.5623 54.1768 16.594 54.3161 16.632C54.4555 16.67 54.5568 16.708 54.6201 16.746C54.6961 16.784 54.7341 16.841 54.7341 16.917C54.7468 17.221 54.6328 17.4743 54.3921 17.677C54.1641 17.867 53.8855 17.962 53.5561 17.962C53.0621 17.962 52.6758 17.829 52.3971 17.563C52.1185 17.297 51.9221 16.8917 51.8081 16.347C51.7448 16.1443 51.7131 15.8467 51.7131 15.454C51.7131 15.2387 51.7258 14.8903 51.7511 14.409C51.7891 14.029 51.8081 13.6237 51.8081 13.193C51.8081 12.7497 51.6815 12.3633 51.4281 12.034C51.1748 11.692 50.8265 11.521 50.3831 11.521C50.1171 11.521 49.8385 11.6033 49.5471 11.768C49.2558 11.92 49.0531 12.11 48.9391 12.338C48.7491 12.7307 48.6225 13.1297 48.5591 13.535C48.4071 14.3203 48.3311 15.074 48.3311 15.796C48.3311 15.9733 48.3438 16.3153 48.3691 16.822C48.3691 16.86 48.3691 16.955 48.3691 17.107C48.3691 17.2463 48.3501 17.3793 48.3121 17.506C48.2868 17.6327 48.2361 17.7467 48.1601 17.848C48.1095 17.8987 48.0145 17.9493 47.8751 18C47.7358 18.0507 47.6155 18.076 47.5141 18.076C47.3368 18.076 47.1151 18 46.8491 17.848C46.5831 17.696 46.4248 17.525 46.3741 17.335L46.3551 17.069C46.3551 16.9677 46.3678 16.8157 46.3931 16.613C46.5451 15.7263 46.6211 14.9537 46.6211 14.295C46.6211 14.0037 46.6148 13.782 46.6021 13.63L46.5831 12.756C46.5831 12.49 46.5071 12.2367 46.3551 11.996C46.2031 11.7427 46.0068 11.5147 45.7661 11.312ZM63.63 6.106C63.63 6.23267 63.611 6.391 63.573 6.581C63.5603 6.657 63.5477 6.73933 63.535 6.828C63.5223 6.91667 63.5097 7.02433 63.497 7.151C63.383 8.291 63.326 9.70333 63.326 11.388C63.326 12.984 63.3957 14.1683 63.535 14.941C63.6743 15.7137 63.8897 16.176 64.181 16.328L64.542 16.48C64.732 16.5433 64.8713 16.613 64.96 16.689C65.0613 16.765 65.112 16.8917 65.112 17.069C65.112 17.3223 64.979 17.544 64.713 17.734C64.447 17.9113 64.1557 18 63.839 18C63.5097 18 63.1867 17.867 62.87 17.601C62.5533 17.3223 62.2937 16.974 62.091 16.556C61.8757 17.012 61.4957 17.3793 60.951 17.658C60.4063 17.924 59.887 18.057 59.393 18.057C58.9497 18.057 58.5633 18 58.234 17.886C57.9047 17.7593 57.5627 17.5693 57.208 17.316C56.7773 17.012 56.448 16.6257 56.22 16.157C56.0047 15.6883 55.897 15.1753 55.897 14.618C55.897 14.0607 56.0047 13.4717 56.22 12.851C56.4353 12.2177 56.6823 11.6983 56.961 11.293C57.2903 10.8243 57.7273 10.476 58.272 10.248C58.8167 10.0073 59.3803 9.887 59.963 9.887C60.2923 9.887 60.5773 9.95033 60.818 10.077C61.0587 10.191 61.3057 10.3557 61.559 10.571C61.559 9.93767 61.5463 9.40567 61.521 8.975C61.5083 8.861 61.502 8.728 61.502 8.576C61.502 7.48667 61.5907 6.62533 61.768 5.992C61.9073 5.46 62.243 5.194 62.775 5.194C63.0663 5.194 63.2817 5.25733 63.421 5.384C63.5603 5.51067 63.63 5.75133 63.63 6.106ZM57.74 14.58C57.74 15.226 57.949 15.72 58.367 16.062C58.557 16.2393 58.7153 16.3597 58.842 16.423C58.9687 16.4863 59.127 16.518 59.317 16.518C59.6843 16.518 60.0327 16.4167 60.362 16.214C60.704 15.9987 60.97 15.72 61.16 15.378C61.3627 15.036 61.464 14.6687 61.464 14.276L61.445 12.395C61.179 12.091 60.932 11.882 60.704 11.768C60.4887 11.6413 60.2607 11.578 60.02 11.578C59.2093 11.578 58.652 11.8883 58.348 12.509C58.1833 12.8003 58.0377 13.1297 57.911 13.497C57.797 13.8643 57.74 14.2253 57.74 14.58ZM66.194 13.649C66.194 12.8763 66.365 12.2367 66.707 11.73C67.049 11.2107 67.524 10.723 68.132 10.267C68.3093 10.1403 68.607 10.0327 69.025 9.944C69.443 9.84267 69.8103 9.792 70.127 9.792C70.507 9.792 70.906 9.87433 71.324 10.039C71.7546 10.191 72.103 10.3683 72.369 10.571C72.8376 10.913 73.1606 11.312 73.338 11.768C73.5153 12.2113 73.604 12.7433 73.604 13.364C73.604 13.63 73.452 13.8897 73.148 14.143C72.8566 14.3837 72.54 14.504 72.198 14.504L71.476 14.485C71.1086 14.485 70.583 14.4977 69.899 14.523L69.5 14.542C69.2213 14.5673 69.0123 14.58 68.873 14.58C68.6703 14.58 68.3916 14.5547 68.037 14.504C68.0876 15.0993 68.3093 15.568 68.702 15.91C69.0946 16.2393 69.519 16.404 69.975 16.404C70.773 16.404 71.3303 16.2457 71.647 15.929C71.913 15.739 72.0903 15.6187 72.179 15.568C72.2676 15.5173 72.407 15.492 72.597 15.492C72.7996 15.492 72.977 15.587 73.129 15.777C73.281 15.967 73.357 16.157 73.357 16.347C73.357 16.5623 73.224 16.784 72.958 17.012C72.7046 17.2273 72.3563 17.4553 71.913 17.696C71.6723 17.7973 71.343 17.886 70.925 17.962C70.507 18.038 70.1586 18.076 69.88 18.076C69.4366 18.076 68.9426 17.9493 68.398 17.696C67.8533 17.43 67.448 17.1387 67.182 16.822C66.916 16.5053 66.6816 16.0557 66.479 15.473C66.289 14.8903 66.194 14.2823 66.194 13.649ZM69.975 13.136C70.8743 13.136 71.533 13.1043 71.951 13.041C71.9256 12.6737 71.8116 12.376 71.609 12.148C71.4063 11.9073 71.1276 11.7047 70.773 11.54C70.659 11.4893 70.5576 11.4513 70.469 11.426C70.3803 11.4007 70.279 11.388 70.165 11.388C69.5823 11.388 69.0883 11.5463 68.683 11.863C68.2903 12.1797 68.056 12.585 67.98 13.079C68.6133 13.117 69.2783 13.136 69.975 13.136ZM78.2135 17.24C78.2135 17.4553 78.1312 17.6453 77.9665 17.81C77.8019 17.9747 77.5992 18.057 77.3585 18.057C76.9785 18.057 76.6999 17.9873 76.5225 17.848C76.3452 17.696 76.2565 17.4237 76.2565 17.031C76.2565 16.5623 76.2439 15.948 76.2185 15.188C76.1932 14.5547 76.1805 14.0227 76.1805 13.592C76.1805 13.3893 76.1932 13.1233 76.2185 12.794C76.2439 12.49 76.2565 12.262 76.2565 12.11C76.2185 11.8693 76.1235 11.673 75.9715 11.521C75.8195 11.3563 75.6232 11.274 75.3825 11.274C75.2685 11.274 75.1735 11.2233 75.0975 11.122C75.0215 11.008 74.9835 10.894 74.9835 10.78C74.9835 10.4887 75.0975 10.267 75.3255 10.115C75.5662 9.963 75.8512 9.887 76.1805 9.887C76.8645 9.887 77.3395 10.2923 77.6055 11.103C77.9349 10.723 78.3085 10.419 78.7265 10.191C79.1572 9.95033 79.5689 9.83 79.9615 9.83C80.4302 9.83 80.8545 9.95667 81.2345 10.21C81.6272 10.4633 81.8235 10.8053 81.8235 11.236C81.8235 11.4767 81.7159 11.7237 81.5005 11.977C81.2979 12.2303 81.0889 12.357 80.8735 12.357C80.7595 12.357 80.6582 12.3317 80.5695 12.281C80.4935 12.2177 80.3985 12.129 80.2845 12.015C80.1579 11.8883 80.0502 11.7997 79.9615 11.749C79.8729 11.6857 79.7715 11.654 79.6575 11.654C79.4549 11.654 79.2649 11.6857 79.0875 11.749C78.9102 11.8123 78.7899 11.8883 78.7265 11.977C78.5239 12.2937 78.3719 12.5787 78.2705 12.832C78.1819 13.0853 78.1375 13.3577 78.1375 13.649C78.1375 13.8643 78.1312 14.0353 78.1185 14.162L78.0995 15.245C78.0995 15.4097 78.1059 15.5933 78.1185 15.796C78.1312 15.9987 78.1439 16.1507 78.1565 16.252C78.1945 16.594 78.2135 16.9233 78.2135 17.24Z" fill="black"/>
</svg>
