<svg width="58" height="23" viewBox="0 0 58 23" fill="none" xmlns="http://www.w3.org/2000/svg">
<path d="M9.899 14.561C9.899 15.1563 9.75967 15.6693 9.481 16.1C9.215 16.518 8.77167 16.9043 8.151 17.259C7.733 17.5123 7.24533 17.7023 6.688 17.829C6.13067 17.9557 5.567 18.019 4.997 18.019C4.41433 18.019 3.69233 17.829 2.831 17.449C2.21033 17.145 1.71633 16.784 1.349 16.366C0.994333 15.948 0.817 15.492 0.817 14.998C0.817 14.656 0.893 14.409 1.045 14.257C1.197 14.0923 1.444 14.01 1.786 14.01C1.96333 14.01 2.147 14.086 2.337 14.238C2.527 14.3773 2.641 14.5167 2.679 14.656C2.85633 15.1753 3.16667 15.5743 3.61 15.853C4.05333 16.119 4.60433 16.252 5.263 16.252C6.023 16.252 6.65633 16.1127 7.163 15.834C7.68233 15.5553 7.942 15.1817 7.942 14.713C7.942 14.257 7.66333 13.8517 7.106 13.497C6.54867 13.1423 5.97867 12.8953 5.396 12.756C4.56 12.528 3.819 12.2557 3.173 11.939C2.50167 11.6097 2.00133 11.2043 1.672 10.723C1.34267 10.2417 1.178 9.735 1.178 9.203C1.178 8.709 1.349 8.20867 1.691 7.702C2.033 7.18267 2.43833 6.809 2.907 6.581C3.16033 6.45433 3.591 6.32133 4.199 6.182C4.81967 6.03 5.26933 5.954 5.548 5.954C5.91533 5.954 6.32067 5.99833 6.764 6.087C7.20733 6.17567 7.56833 6.30233 7.847 6.467C8.40433 6.78367 8.816 7.06867 9.082 7.322C9.348 7.57533 9.481 7.892 9.481 8.272C9.481 8.5 9.39233 8.70267 9.215 8.88C9.05033 9.05733 8.759 9.146 8.341 9.146C8.23967 9.146 8.13833 9.10167 8.037 9.013C7.93567 8.92433 7.809 8.79133 7.657 8.614C7.45433 8.348 7.258 8.17067 7.068 8.082C6.878 8.01867 6.59933 7.949 6.232 7.873C5.87733 7.797 5.56067 7.759 5.282 7.759C4.978 7.759 4.66133 7.82233 4.332 7.949C4.00267 8.07567 3.724 8.25933 3.496 8.5C3.28067 8.728 3.173 8.994 3.173 9.298C3.173 9.55133 3.287 9.773 3.515 9.963C3.75567 10.1403 4.04067 10.286 4.37 10.4C4.75 10.552 5.16167 10.685 5.605 10.799C6.18767 10.9763 6.66267 11.141 7.03 11.293C7.41 11.4323 7.77733 11.6097 8.132 11.825C8.75267 12.1923 9.20233 12.5723 9.481 12.965C9.75967 13.345 9.899 13.877 9.899 14.561ZM13.8039 15.055C13.8039 15.5363 13.8736 15.91 14.0129 16.176C14.1649 16.4293 14.3549 16.556 14.5829 16.556C14.7096 16.556 14.8299 16.5497 14.9439 16.537C15.0579 16.5117 15.1719 16.499 15.2859 16.499C15.4126 16.499 15.5203 16.5623 15.6089 16.689C15.7103 16.8157 15.7609 16.955 15.7609 17.107C15.7609 17.411 15.6153 17.6517 15.3239 17.829C15.0453 17.9937 14.6653 18.076 14.1839 18.076C13.8419 18.076 13.4936 17.9747 13.1389 17.772C12.7969 17.5567 12.5119 17.2273 12.2839 16.784C12.0559 16.328 11.9419 15.7643 11.9419 15.093C11.9419 13.649 11.9673 12.4267 12.0179 11.426C12.0813 10.2353 12.1129 8.73433 12.1129 6.923C12.1129 6.353 12.1446 5.954 12.2079 5.726C12.2839 5.54867 12.4043 5.41567 12.5689 5.327C12.7463 5.22567 12.9299 5.175 13.1199 5.175C13.3099 5.175 13.4746 5.20667 13.6139 5.27C13.7659 5.33333 13.8673 5.43467 13.9179 5.574C13.9686 5.726 14.0003 5.878 14.0129 6.03C14.0383 6.16933 14.0509 6.372 14.0509 6.638C14.0509 7.15733 14.0319 7.65767 13.9939 8.139C13.9686 8.72167 13.9559 9.146 13.9559 9.412C13.8546 11.6413 13.8039 13.5223 13.8039 15.055ZM18.0258 5.802C18.4691 5.84 18.8555 5.96033 19.1848 6.163C19.5141 6.353 19.6788 6.64433 19.6788 7.037C19.6788 7.32833 19.5395 7.56267 19.2608 7.74C18.9948 7.90467 18.6718 7.987 18.2918 7.987C17.9245 7.987 17.6711 7.892 17.5318 7.702C17.3925 7.512 17.3228 7.31567 17.3228 7.113C17.3228 6.733 17.3608 6.41633 17.4368 6.163C17.5255 5.90967 17.7218 5.78933 18.0258 5.802ZM19.5458 14.219V14.77C19.5458 15.264 19.5585 15.7327 19.5838 16.176C19.6218 16.6067 19.6661 17.0437 19.7168 17.487C19.7041 17.6137 19.6091 17.7467 19.4318 17.886C19.2545 18.0127 19.0961 18.076 18.9568 18.076C18.7161 18.076 18.4691 18.0317 18.2158 17.943C17.9751 17.8417 17.8295 17.7213 17.7788 17.582C17.7028 17.1767 17.6648 16.8157 17.6648 16.499C17.6648 15.4603 17.6331 14.295 17.5698 13.003C17.5191 11.863 17.4938 11.065 17.4938 10.609C17.4938 10.381 17.6078 10.1847 17.8358 10.02C18.0638 9.85533 18.3045 9.773 18.5578 9.773C18.9251 9.773 19.1785 9.85533 19.3178 10.02C19.4698 10.1847 19.5458 10.4443 19.5458 10.799V14.219ZM21.7661 11.312C21.6648 11.236 21.5825 11.16 21.5191 11.084C21.4558 10.9953 21.4241 10.8433 21.4241 10.628C21.4241 10.3873 21.5065 10.2037 21.6711 10.077C21.8485 9.93767 22.0511 9.868 22.2791 9.868C22.7225 9.868 23.1025 9.982 23.4191 10.21C23.7485 10.438 23.9891 10.7547 24.1411 11.16C24.4198 10.6407 24.7745 10.286 25.2051 10.096C25.6358 9.89333 26.2311 9.792 26.9911 9.792C27.2951 9.792 27.6055 9.887 27.9221 10.077C28.2515 10.2543 28.5491 10.476 28.8151 10.742C29.0305 11.0207 29.2141 11.369 29.3661 11.787C29.5181 12.1923 29.5941 12.5597 29.5941 12.889C29.5941 13.079 29.5815 13.3893 29.5561 13.82C29.5308 14.276 29.5181 14.637 29.5181 14.903C29.5181 15.7897 29.6891 16.3343 30.0311 16.537C30.0818 16.5623 30.1768 16.594 30.3161 16.632C30.4555 16.67 30.5568 16.708 30.6201 16.746C30.6961 16.784 30.7341 16.841 30.7341 16.917C30.7468 17.221 30.6328 17.4743 30.3921 17.677C30.1641 17.867 29.8855 17.962 29.5561 17.962C29.0621 17.962 28.6758 17.829 28.3971 17.563C28.1185 17.297 27.9221 16.8917 27.8081 16.347C27.7448 16.1443 27.7131 15.8467 27.7131 15.454C27.7131 15.2387 27.7258 14.8903 27.7511 14.409C27.7891 14.029 27.8081 13.6237 27.8081 13.193C27.8081 12.7497 27.6815 12.3633 27.4281 12.034C27.1748 11.692 26.8265 11.521 26.3831 11.521C26.1171 11.521 25.8385 11.6033 25.5471 11.768C25.2558 11.92 25.0531 12.11 24.9391 12.338C24.7491 12.7307 24.6225 13.1297 24.5591 13.535C24.4071 14.3203 24.3311 15.074 24.3311 15.796C24.3311 15.9733 24.3438 16.3153 24.3691 16.822C24.3691 16.86 24.3691 16.955 24.3691 17.107C24.3691 17.2463 24.3501 17.3793 24.3121 17.506C24.2868 17.6327 24.2361 17.7467 24.1601 17.848C24.1095 17.8987 24.0145 17.9493 23.8751 18C23.7358 18.0507 23.6155 18.076 23.5141 18.076C23.3368 18.076 23.1151 18 22.8491 17.848C22.5831 17.696 22.4248 17.525 22.3741 17.335L22.3551 17.069C22.3551 16.9677 22.3678 16.8157 22.3931 16.613C22.5451 15.7263 22.6211 14.9537 22.6211 14.295C22.6211 14.0037 22.6148 13.782 22.6021 13.63L22.5831 12.756C22.5831 12.49 22.5071 12.2367 22.3551 11.996C22.2031 11.7427 22.0068 11.5147 21.7661 11.312ZM39.63 6.106C39.63 6.23267 39.611 6.391 39.573 6.581C39.5603 6.657 39.5477 6.73933 39.535 6.828C39.5223 6.91667 39.5097 7.02433 39.497 7.151C39.383 8.291 39.326 9.70333 39.326 11.388C39.326 12.984 39.3957 14.1683 39.535 14.941C39.6743 15.7137 39.8897 16.176 40.181 16.328L40.542 16.48C40.732 16.5433 40.8713 16.613 40.96 16.689C41.0613 16.765 41.112 16.8917 41.112 17.069C41.112 17.3223 40.979 17.544 40.713 17.734C40.447 17.9113 40.1557 18 39.839 18C39.5097 18 39.1867 17.867 38.87 17.601C38.5533 17.3223 38.2937 16.974 38.091 16.556C37.8757 17.012 37.4957 17.3793 36.951 17.658C36.4063 17.924 35.887 18.057 35.393 18.057C34.9497 18.057 34.5633 18 34.234 17.886C33.9047 17.7593 33.5627 17.5693 33.208 17.316C32.7773 17.012 32.448 16.6257 32.22 16.157C32.0047 15.6883 31.897 15.1753 31.897 14.618C31.897 14.0607 32.0047 13.4717 32.22 12.851C32.4353 12.2177 32.6823 11.6983 32.961 11.293C33.2903 10.8243 33.7273 10.476 34.272 10.248C34.8167 10.0073 35.3803 9.887 35.963 9.887C36.2923 9.887 36.5773 9.95033 36.818 10.077C37.0587 10.191 37.3057 10.3557 37.559 10.571C37.559 9.93767 37.5463 9.40567 37.521 8.975C37.5083 8.861 37.502 8.728 37.502 8.576C37.502 7.48667 37.5907 6.62533 37.768 5.992C37.9073 5.46 38.243 5.194 38.775 5.194C39.0663 5.194 39.2817 5.25733 39.421 5.384C39.5603 5.51067 39.63 5.75133 39.63 6.106ZM33.74 14.58C33.74 15.226 33.949 15.72 34.367 16.062C34.557 16.2393 34.7153 16.3597 34.842 16.423C34.9687 16.4863 35.127 16.518 35.317 16.518C35.6843 16.518 36.0327 16.4167 36.362 16.214C36.704 15.9987 36.97 15.72 37.16 15.378C37.3627 15.036 37.464 14.6687 37.464 14.276L37.445 12.395C37.179 12.091 36.932 11.882 36.704 11.768C36.4887 11.6413 36.2607 11.578 36.02 11.578C35.2093 11.578 34.652 11.8883 34.348 12.509C34.1833 12.8003 34.0377 13.1297 33.911 13.497C33.797 13.8643 33.74 14.2253 33.74 14.58ZM42.194 13.649C42.194 12.8763 42.365 12.2367 42.707 11.73C43.049 11.2107 43.524 10.723 44.132 10.267C44.3093 10.1403 44.607 10.0327 45.025 9.944C45.443 9.84267 45.8103 9.792 46.127 9.792C46.507 9.792 46.906 9.87433 47.324 10.039C47.7546 10.191 48.103 10.3683 48.369 10.571C48.8376 10.913 49.1606 11.312 49.338 11.768C49.5153 12.2113 49.604 12.7433 49.604 13.364C49.604 13.63 49.452 13.8897 49.148 14.143C48.8566 14.3837 48.54 14.504 48.198 14.504L47.476 14.485C47.1086 14.485 46.583 14.4977 45.899 14.523L45.5 14.542C45.2213 14.5673 45.0123 14.58 44.873 14.58C44.6703 14.58 44.3916 14.5547 44.037 14.504C44.0876 15.0993 44.3093 15.568 44.702 15.91C45.0946 16.2393 45.519 16.404 45.975 16.404C46.773 16.404 47.3303 16.2457 47.647 15.929C47.913 15.739 48.0903 15.6187 48.179 15.568C48.2676 15.5173 48.407 15.492 48.597 15.492C48.7996 15.492 48.977 15.587 49.129 15.777C49.281 15.967 49.357 16.157 49.357 16.347C49.357 16.5623 49.224 16.784 48.958 17.012C48.7046 17.2273 48.3563 17.4553 47.913 17.696C47.6723 17.7973 47.343 17.886 46.925 17.962C46.507 18.038 46.1586 18.076 45.88 18.076C45.4366 18.076 44.9426 17.9493 44.398 17.696C43.8533 17.43 43.448 17.1387 43.182 16.822C42.916 16.5053 42.6816 16.0557 42.479 15.473C42.289 14.8903 42.194 14.2823 42.194 13.649ZM45.975 13.136C46.8743 13.136 47.533 13.1043 47.951 13.041C47.9256 12.6737 47.8116 12.376 47.609 12.148C47.4063 11.9073 47.1276 11.7047 46.773 11.54C46.659 11.4893 46.5576 11.4513 46.469 11.426C46.3803 11.4007 46.279 11.388 46.165 11.388C45.5823 11.388 45.0883 11.5463 44.683 11.863C44.2903 12.1797 44.056 12.585 43.98 13.079C44.6133 13.117 45.2783 13.136 45.975 13.136ZM54.2135 17.24C54.2135 17.4553 54.1312 17.6453 53.9665 17.81C53.8019 17.9747 53.5992 18.057 53.3585 18.057C52.9785 18.057 52.6999 17.9873 52.5225 17.848C52.3452 17.696 52.2565 17.4237 52.2565 17.031C52.2565 16.5623 52.2439 15.948 52.2185 15.188C52.1932 14.5547 52.1805 14.0227 52.1805 13.592C52.1805 13.3893 52.1932 13.1233 52.2185 12.794C52.2439 12.49 52.2565 12.262 52.2565 12.11C52.2185 11.8693 52.1235 11.673 51.9715 11.521C51.8195 11.3563 51.6232 11.274 51.3825 11.274C51.2685 11.274 51.1735 11.2233 51.0975 11.122C51.0215 11.008 50.9835 10.894 50.9835 10.78C50.9835 10.4887 51.0975 10.267 51.3255 10.115C51.5662 9.963 51.8512 9.887 52.1805 9.887C52.8645 9.887 53.3395 10.2923 53.6055 11.103C53.9349 10.723 54.3085 10.419 54.7265 10.191C55.1572 9.95033 55.5689 9.83 55.9615 9.83C56.4302 9.83 56.8545 9.95667 57.2345 10.21C57.6272 10.4633 57.8235 10.8053 57.8235 11.236C57.8235 11.4767 57.7159 11.7237 57.5005 11.977C57.2979 12.2303 57.0889 12.357 56.8735 12.357C56.7595 12.357 56.6582 12.3317 56.5695 12.281C56.4935 12.2177 56.3985 12.129 56.2845 12.015C56.1579 11.8883 56.0502 11.7997 55.9615 11.749C55.8729 11.6857 55.7715 11.654 55.6575 11.654C55.4549 11.654 55.2649 11.6857 55.0875 11.749C54.9102 11.8123 54.7899 11.8883 54.7265 11.977C54.5239 12.2937 54.3719 12.5787 54.2705 12.832C54.1819 13.0853 54.1375 13.3577 54.1375 13.649C54.1375 13.8643 54.1312 14.0353 54.1185 14.162L54.0995 15.245C54.0995 15.4097 54.1059 15.5933 54.1185 15.796C54.1312 15.9987 54.1439 16.1507 54.1565 16.252C54.1945 16.594 54.2135 16.9233 54.2135 17.24Z" fill="black"/>
</svg>
